# AST/ASF file generated using VICON BodyLanguage
# -----------------------------------------------
:version 1.10
:name VICON
:units
  mass 1.0
  length 0.45
  angle deg
:documentation
   .ast/.asf automatically generated from VICON data using
   VICON BodyBuilder and BodyLanguage model FoxedUp or BRILLIANT.MOD
:root
   order TX TY TZ RX RY RZ
   axis XYZ
   position 0 0 0  
   orientation 0 0 0 
:bonedata
  begin
     id 1 
     name lhipjoint
     direction 0.547975 -0.797114 0.253638 
     length 2.36201 
     axis 0 0 0  XYZ
  end
  begin
     id 2 
     name lfemur
     direction 0.34202 -0.939693 0  
     length 7.69075  
     axis 0 0 20  XYZ
    dof rx ry rz
    limits (-160.0 20.0)
           (-70.0 70.0)
           (-60.0 70.0)
  end
  begin
     id 3 
     name ltibia
     direction 0.34202 -0.939693 0   
     length 7.91399   
     axis 0 0 20   XYZ
    dof rx
    limits (-10.0 170.0)
  end
  begin
     id 4 
     name lfoot
     direction 0.0705293 -0.193778 0.978507   
     length 2.13618   
     axis -90 7.62852e-016 20   XYZ
    dof rx rz
    limits (-45.0 90.0)
           (-70.0 20.0)
  end
  begin
     id 5 
     name ltoes
     direction 1.53592e-011 -4.21925e-011 1   
     length 1.07518   
     axis -90 7.62852e-016 20   XYZ
    dof rx
    limits (-90.0 20.0)
  end
  begin
     id 6 
     name rhipjoint
     direction -0.57 -0.782963 0.249136   
     length 2.4047  
     axis 0 0 0  XYZ 
  end
  begin
     id 7 
     name rfemur
     direction -0.34202 -0.939693 0   
     length 7.51486   
     axis 0 0 -20   XYZ
    dof rx ry rz
    limits (-160.0 20.0)
           (-70.0 70.0)
           (-70.0 60.0)
  end
  begin
     id 8 
     name rtibia
     direction -0.34202 -0.939693 0   
     length 8.08317   
     axis 0 0 -20   XYZ
    dof rx
    limits (-10.0 170.0)
 end
 begin
     id 9 
     name rfoot
     direction -0.104954 -0.281256 0.953876   
     length 2.30343  
     axis -90 -7.62852e-016 -20   XYZ
    dof rx rz
    limits (-45.0 90.0)
           (-20.0 70.0)
  end
  begin
     id 10 
     name rtoes
     direction -1.53556e-011 -4.21922e-011 1   
     length 1.14803   
     axis -90 -7.62852e-016 -20   XYZ
    dof rx
    limits (-90.0 20.0)
  end
  begin
     id 11 
     name lowerback
     direction -0.0152855 0.99353 -0.11254   
     length 2.05311   
     axis 0 0 0   XYZ
    dof rx ry rz
    limits (-20.0 45.0)
           (-30.0 30.0)
           (-30.0 30.0)
  end
  begin
     id 12 
     name upperback
     direction -0.00157509 0.999443 -0.033332   
     length 2.06353   
     axis 0 0 0   XYZ
    dof rx ry rz
    limits (-20.0 45.0)
           (-30.0 30.0)
           (-30.0 30.0)
  end
  begin
     id 13 
     name thorax
     direction 0.00577788 0.999804 0.0189484   
     length 2.08472   
     axis 0 0 0   XYZ
    dof rx ry rz
    limits (-20.0 45.0)
           (-30.0 30.0)
           (-30.0 30.0)
  end
  begin
     id 14 
     name lowerneck
     direction -1.09301e-005 0.994719 0.10264   
     length 1.76249   
     axis 0 0 0   XYZ
    dof rx ry rz
    limits (-20.0 45.0)
           (-30.0 30.0)
           (-30.0 30.0)
  end
  begin
     id 15 
     name upperneck
     direction 0.0495018 0.988526 -0.142706   
     length 1.77897   
     axis 0 0 0   XYZ
    dof rx ry rz
    limits (-20.0 45.0)
           (-30.0 30.0)
           (-30.0 30.0)
  end
  begin
     id 16
     name head
     direction 0.0142736 0.998114 -0.0597101  
     length 1.78934  
     axis 0 0 0   XYZ
    dof rx ry rz
    limits (-20.0 45.0)
           (-30.0 30.0)
           (-30.0 30.0)
  end
  begin
     id 17 
     name lclavicle
     direction 0.918111 0.396107 -0.0130883  
     length 3.37276  
     axis 0 0 0   XYZ
    dof ry rz
    limits (-20.0 10.0)
           (0.0 20.0)
  end
  begin
     id 18 
     name lhumerus
     direction 1 -4.48975e-011 -3.26108e-027   
     length 5.34298   
     axis 180 -30 -90   XYZ
    dof rx ry rz
    limits (-60.0 90.0)
           (-90.0 90.0)
           (-90.0 90.0)
  end
  begin
     id 19
     name lradius
     direction 1 -4.48964e-011 -8.84413e-028   
     length 3.67262   
     axis 180 -30 -90   XYZ
    dof rx
    limits (-10.0 170.0)
  end
  begin
     id 20
     name lwrist
     direction 1 -4.48991e-011 -1.24264e-027   
     length 1.83631   
     axis -2.17013e-015 90 90   XYZ
    dof ry
    limits (-180.0 0.0)
 end
  begin
     id 21 
     name lhand
     direction 1 -4.48855e-011 -2.48528e-027   
     length 0.599298   
     axis 1.58582e-015 90 90   XYZ
    dof rx rz
    limits (-90.0 90.0)
           (-45.0 45.0)
  end
  begin
     id 22 
     name lfingers
     direction 1 -4.48811e-011 -4.97056e-027   
     length 0.48317   
     axis 3.17164e-015 90 90   XYZ
    dof rx
    limits (0.0 90.0)
  end
  begin
     id 23
     name lthumb
     direction 0.707107 -6.34882e-011 0.707107   
     length 0.693738   
     axis -90 45 2.85299e-015   XYZ
    dof rx rz
    limits (-45.0 45.0)
           (-45.0 45.0)
  end
  begin
     id 24 
     name rclavicle
     direction -0.920511 0.384752 -0.0680135   
     length 3.43787  
     axis 0 0 0   XYZ 
    dof ry rz
    limits (-10.0 20.0)
           (-20.0 0.0)
  end
  begin
     id 25 
     name rhumerus
     direction -0.999976 -0.00330524 0.00603274  
     length 5.5498   
     axis 180 30 90   XYZ
    dof rx ry rz
    limits (-90.0 60.0)
           (-90.0 90.0)
           (-90.0 90.0)
  end
  begin
     id 26 
     name rradius
     direction -1 -4.48967e-011 8.62438e-027   
     length 3.69401   
     axis 180 30 90   XYZ
    dof rx
    limits (-10.0 170.0)
  end
  begin
     id 27 
     name rwrist
     direction -1 -4.4897e-011 9.54866e-027   
     length 1.84701   
     axis -7.69462e-015 -90 -90   XYZ
    dof ry
    limits (-180.0 0.0)
  end
  begin
     id 28
     name rhand
     direction -1 -4.48982e-011 1.90973e-026   
     length 0.638113   
     axis -1.21857e-014 -90 -90   XYZ
    dof rx rz
    limits (-90.0 90.0)
           (-45.0 45.0)
  end
  begin
     id 29
     name rfingers
     direction -1 -4.48936e-011 3.81946e-026   
     length 0.514463   
     axis -2.43714e-014 -90 -90   XYZ
    dof rx
    limits (0.0 90.0)
  end
  begin
     id 30
     name rthumb
     direction -0.707107 -6.34942e-011 0.707107   
     length 0.738669   
     axis -90 -45 -2.85299e-015   XYZ
    dof rx rz
    limits (-45.0 45.0)
           (-45.0 45.0)
  end
:hierarchy
  begin
    root lhipjoint rhipjoint lowerback
    lhipjoint lfemur
    lfemur ltibia
    ltibia lfoot
    lfoot ltoes
    rhipjoint rfemur
    rfemur rtibia
    rtibia rfoot
    rfoot rtoes
    lowerback upperback
    upperback thorax
    thorax lowerneck lclavicle rclavicle
    lowerneck upperneck
    upperneck head
    lclavicle lhumerus
    lhumerus lradius
    lradius lwrist
    lwrist lhand lthumb
    lhand lfingers
    rclavicle rhumerus
    rhumerus rradius
    rradius rwrist
    rwrist rhand rthumb
    rhand rfingers
  end

#!OML:ASF F:\twosubjects\two\Thursday\Session 1\Rory.ASF
:FULLY-SPECIFIED
:DEGREES
65
root 9.37443 17.934 8.13168 -126.768 -86.0137 130.509
lowerback 4.85912 -1.0898 -2.87241
upperback -1.05056 -1.6962 -1.31213
thorax -3.76746 -0.79971 0.392987
lowerneck -7.98929 -5.94405 -6.21504
upperneck 7.44302 -8.17883 9.06618
head 4.16262 -3.80268 3.26516
rclavicle 1.18277e-014 7.35503e-015
rhumerus 29.1257 -44.0838 -10.3511
rradius 64.4769
rwrist -12.7791
rhand -39.7749 27.0272
rfingers 7.12502
rthumb -12.7508 -2.56351
lclavicle 1.18277e-014 7.35503e-015
lhumerus 22.6728 39.4819 3.60241
lradius 69.6646
lwrist 13.3744
lhand -19.5675 40.7073
lfingers 7.12502
lthumb 6.75733 70.5795
rfemur -11.1056 20.3149 -5.73237
rtibia 29.782
rfoot -4.21206 -8.83368
rtoes -40.5371
lfemur -3.45456 -13.5731 -1.46448
ltibia 24.6993
lfoot -8.5026 3.35231
ltoes -30.01
66
root 9.37203 18.1721 8.12991 -125.523 -85.9308 129.781
lowerback 4.25356 -1.25917 -3.15649
upperback -1.05732 -1.91175 -1.26052
thorax -3.41644 -0.90534 0.606101
lowerneck -8.30883 -5.84701 -5.90081
upperneck 7.34835 -8.05571 8.99437
head 4.16203 -3.73 3.19447
rclavicle 2.93953e-014 -1.17283e-014
rhumerus 26.9034 -43.1135 -11.0411
rradius 63.2201
rwrist -13.101
rhand -38.8714 26.3983
rfingers 7.12502
rthumb -11.8796 -3.24472
lclavicle 2.93953e-014 -1.17283e-014
lhumerus 18.3054 36.9254 1.86507
lradius 68.7353
lwrist 13.3512
lhand -18.9905 40.7374
lfingers 7.12502
lthumb 7.31432 70.591
rfemur -11.4812 19.8373 -5.60413
rtibia 28.846
rfoot -0.388875 -8.97244
rtoes -38.1483
lfemur -3.62986 -14.0217 -1.80196
ltibia 23.3221
lfoot -5.21995 4.43501
ltoes -26.8736
67
root 9.37289 18.4079 8.12322 -127.846 -86.059 132.542
lowerback 3.80102 -1.28958 -3.24902
upperback -1.04094 -1.92838 -1.06985
thorax -3.1342 -0.913417 0.842748
lowerneck -8.50594 -5.89008 -5.73108
upperneck 7.12754 -8.09801 8.90462
head 4.12041 -3.7483 3.13333
rclavicle 5.42931e-015 -1.09332e-014
rhumerus 23.9158 -41.9402 -10.5519
rradius 61.4366
rwrist -13.379
rhand -38.1791 25.7225
rfingers 7.12502
rthumb -11.212 -3.95793
lclavicle 5.42931e-015 -1.09332e-014
lhumerus 14.3599 34.1956 0.794739
lradius 67.8745
lwrist 13.4576
lhand -18.4373 40.4042
lfingers 7.12502
lthumb 7.84826 70.2385
rfemur -11.8967 20.1835 -5.0596
rtibia 28.0668
rfoot 2.65997 -10.1859
rtoes -32.2789
lfemur -3.77734 -14.6856 -1.82052
ltibia 22.0719
lfoot -1.79285 6.09017
ltoes -21.543
68
root 9.37677 18.6325 8.11079 -130.699 -86.217 135.776
lowerback 3.52255 -1.08855 -3.17106
upperback -0.985359 -1.63607 -0.914526
thorax -2.92814 -0.77062 0.933785
lowerneck -9.01469 -6.20562 -5.89409
upperneck 7.08968 -8.48765 9.00927
head 4.23417 -3.92545 3.14713
rclavicle -1.17904e-014 -4.37326e-015
rhumerus 20.2702 -41.1474 -9.67996
rradius 59.9096
rwrist -12.8654
rhand -37.4207 24.3253
rfingers 7.12502
rthumb -10.4804 -5.39348
lclavicle -1.17904e-014 -4.37326e-015
lhumerus 11.6206 31.4464 0.986501
lradius 66.9096
lwrist 13.765
lhand -18.204 39.9534
lfingers 7.12502
lthumb 8.07345 69.7792
rfemur -12.4132 20.4206 -4.35395
rtibia 27.5225
rfoot 5.84983 -11.7975
rtoes -27.2751
lfemur -4.0325 -15.1687 -1.79475
ltibia 21.0652
lfoot 1.97278 7.78676
ltoes -17.0379
69
root 9.37935 18.846 8.09373 -128.694 -86.2781 134.308
lowerback 3.07406 -1.00986 -3.20428
upperback -1.02456 -1.52096 -1.06461
thorax -2.72383 -0.717792 0.782475
lowerneck -9.39198 -6.38853 -5.5655
upperneck 7.16028 -8.79527 9.20863
head 4.33733 -4.04901 3.11929
rclavicle -1.62258e-014 -6.95746e-015
rhumerus 17.2674 -41.0371 -10.6689
rradius 59.522
rwrist -11.7617
rhand -35.9339 22.3311
rfingers 7.12502
rthumb -9.04601 -7.45492
lclavicle -1.62258e-014 -6.95746e-015
lhumerus 9.22245 28.5084 1.16362
lradius 65.9224
lwrist 14.2483
lhand -17.8943 40.0597
lfingers 7.12502
lthumb 8.37232 69.8738
rfemur -13.1307 20.0152 -3.93118
rtibia 27.2409
rfoot 8.93995 -13.2486
rtoes -22.9271
lfemur -4.77038 -15.2419 -2.02543
ltibia 20.4366
lfoot 5.58416 8.90013
ltoes -11.1747
70
root 9.38497 19.0437 8.08407 -127.655 -86.4667 133.924
lowerback 2.61966 -1.11793 -3.17682
upperback -1.25577 -1.65481 -1.12505
thorax -2.70411 -0.784843 0.704382
lowerneck -9.49314 -6.31699 -5.12731
upperneck 7.41756 -8.78195 9.21676
head 4.41328 -4.02468 3.04759
rclavicle 2.75814e-015 -6.75868e-015
rhumerus 14.2399 -39.6681 -11.0855
rradius 57.7983
rwrist -11.9745
rhand -35.3074 22.0584
rfingers 7.12502
rthumb -8.44144 -7.75294
lclavicle 2.75814e-015 -6.75868e-015
lhumerus 6.47842 25.401 1.22182
lradius 64.7444
lwrist 14.6255
lhand -17.2018 39.927
lfingers 7.12502
lthumb 9.04064 69.7132
rfemur -14.011 19.4881 -3.3685
rtibia 27.2028
rfoot 10.7254 -14.5085
rtoes -17.8807
lfemur -5.84685 -15.0035 -2.11392
ltibia 20.2739
lfoot 7.99749 9.31158
ltoes -5.68303
71
root 9.39387 19.2201 8.08396 -129.343 -86.8006 136.14
lowerback 2.28067 -1.21628 -2.89629
upperback -1.38021 -1.76085 -0.993896
thorax -2.64147 -0.841006 0.680607
lowerneck -10.0197 -6.2963 -5.22613
upperneck 8.05709 -8.78324 9.27883
head 4.70388 -3.99695 3.06098
rclavicle 6.21202e-015 6.55989e-015
rhumerus 11.5033 -38.3819 -11.5537
rradius 56.0778
rwrist -11.4744
rhand -34.7116 22.0074
rfingers 7.12502
rthumb -7.86646 -7.82621
lclavicle 6.21202e-015 6.55989e-015
lhumerus 3.80653 22.6052 1.88251
lradius 63.3257
lwrist 14.7046
lhand -16.5159 39.2068
lfingers 7.12502
lthumb 9.70246 68.9633
rfemur -14.7756 18.9003 -2.482
rtibia 27.3735
rfoot 11.2008 -14.6793
rtoes -14.3376
lfemur -6.95738 -14.7107 -2.05371
ltibia 20.6323
lfoot 8.53478 9.02541
ltoes -3.0919
